<?xml version="1.0" standalone="no"?>
<!DOCTYPE svg PUBLIC "-//W3C//DTD SVG 20010904//EN"
 "http://www.w3.org/TR/2001/REC-SVG-20010904/DTD/svg10.dtd">
<svg version="1.0" xmlns="http://www.w3.org/2000/svg"
 width="421.000000pt" height="421.000000pt" viewBox="0 0 421.000000 421.000000"
 preserveAspectRatio="xMidYMid meet">

<g transform="translate(0.000000,421.000000) scale(0.100000,-0.100000)"
fill="#000000" stroke="none">
<path d="M2032 3290 c0 -14 2 -19 5 -12 2 6 2 18 0 25 -3 6 -5 1 -5 -13z"/>
<path d="M2060 3280 c-8 -5 -10 -10 -5 -10 6 0 17 5 25 10 8 5 11 10 5 10 -5
0 -17 -5 -25 -10z"/>
<path d="M2305 3210 c4 -6 11 -7 17 -4 8 5 9 1 5 -10 -4 -11 -1 -19 11 -23 35
-12 52 -34 40 -52 -9 -14 -5 -26 14 -55 31 -45 27 -80 -8 -72 -18 5 -26 0 -38
-26 -11 -21 -13 -35 -6 -42 7 -7 10 -6 10 2 0 12 32 17 42 6 3 -3 3 -14 1 -25
-4 -14 -11 -18 -22 -14 -9 4 -28 9 -42 12 -24 5 -27 2 -31 -31 -2 -20 -1 -36
3 -36 4 0 6 -12 5 -27 -3 -26 -6 -27 -42 -24 -21 1 -45 8 -52 13 -7 6 -15 8
-18 5 -12 -11 -33 21 -29 42 4 23 -31 91 -47 91 -5 0 -6 -6 -2 -12 4 -7 -1 -6
-12 4 -23 19 -141 37 -130 19 5 -7 -1 -11 -14 -11 -13 0 -19 4 -14 12 5 7 0 9
-14 6 -14 -4 -22 -1 -25 11 -3 9 -5 -1 -6 -21 -1 -23 4 -38 10 -38 7 0 26 -14
44 -32 18 -17 42 -33 54 -35 33 -5 74 -35 60 -43 -8 -6 -8 -9 2 -13 17 -6 -32
-57 -54 -57 -8 0 -25 -9 -38 -21 -24 -21 -22 -21 29 -3 14 5 13 4 -3 -9 -21
-17 -70 -23 -61 -8 3 5 -6 12 -20 15 -19 5 -30 2 -40 -11 -13 -18 -15 -23 -18
-53 0 -8 -6 -14 -13 -13 -15 3 -37 -72 -27 -90 4 -6 4 -9 -1 -5 -14 13 -34
-26 -41 -80 -5 -42 -3 -57 15 -85 11 -19 21 -48 21 -64 0 -16 7 -38 16 -49 13
-16 15 -16 10 -1 -7 23 6 22 22 -3 11 -18 10 -20 -10 -20 -15 0 -19 -3 -11 -8
7 -4 14 -17 16 -27 2 -11 9 -31 14 -46 17 -40 -8 -139 -34 -139 -7 0 -13 -8
-14 -17 0 -15 -2 -15 -9 2 -5 11 -9 14 -9 6 -1 -11 -4 -11 -16 -1 -11 9 -21 7
-49 -15 -19 -14 -44 -27 -55 -28 -12 -1 -21 -4 -21 -8 0 -4 -18 -5 -39 -3 -35
3 -40 1 -46 -24 -12 -46 -15 -122 -5 -122 6 0 10 -5 10 -11 0 -7 -10 -9 -25
-7 -21 4 -25 1 -25 -19 0 -15 4 -22 11 -17 7 4 10 1 7 -7 -3 -8 -15 -16 -27
-17 -15 -3 -22 1 -19 9 4 11 -24 49 -36 49 -2 0 -9 -19 -15 -42 -8 -30 -9 -58
-2 -93 5 -27 8 -51 7 -53 -2 -1 -15 2 -30 8 -15 5 -34 10 -42 10 -23 0 -56
-40 -51 -61 3 -10 0 -17 -5 -16 -6 1 -13 -4 -15 -10 -3 -7 0 -13 6 -13 16 0
13 -43 -4 -66 -14 -18 -15 -17 -10 11 l6 30 -16 -34 c-8 -18 -15 -40 -15 -49
0 -8 -8 -21 -17 -29 -10 -8 -12 -12 -6 -8 21 10 15 -12 -13 -44 -14 -17 -23
-31 -20 -31 4 0 -1 -11 -10 -25 -9 -14 -13 -32 -9 -45 3 -11 2 -20 -4 -20 -5
0 -12 -8 -14 -17 -4 -17 -5 -17 -6 0 0 9 -5 17 -10 17 -13 0 -22 -28 -28 -97
-3 -35 -9 -63 -13 -63 -4 0 -5 -12 -2 -26 3 -15 1 -24 -4 -21 -5 3 -10 -34
-11 -84 -1 -49 2 -91 7 -94 9 -6 5 -68 -5 -85 -4 -6 -13 -9 -21 -6 -7 3 -16 1
-19 -4 -8 -13 -80 -7 -99 9 -25 21 -19 -3 8 -28 13 -13 37 -24 53 -25 50 -4
83 -18 83 -35 0 -9 4 -21 9 -27 5 -5 11 -18 14 -29 4 -16 5 -15 6 6 1 15 7 26
16 26 8 0 12 -4 9 -9 -10 -15 7 -30 21 -18 10 8 15 8 20 -1 4 -6 4 -14 -1 -18
-13 -9 -17 -64 -5 -56 7 4 11 -18 11 -65 0 -68 1 -71 21 -65 15 5 20 3 17 -6
-3 -8 4 -21 15 -30 13 -10 16 -18 9 -22 -6 -4 -17 0 -26 8 -20 21 -29 3 -10
-23 11 -16 21 -20 44 -16 24 5 31 2 43 -22 14 -26 36 -97 43 -134 2 -8 -2 -18
-9 -22 -9 -6 -7 -12 7 -23 14 -11 19 -26 18 -55 l-2 -40 713 0 c789 1 749 -4
562 65 -179 65 -206 82 -237 148 -16 32 -34 60 -41 63 -10 4 -11 21 -5 82 5
42 6 87 3 100 -3 13 -2 28 2 35 4 7 8 17 10 22 7 34 40 104 47 98 4 -4 4 1 0
11 -4 11 -3 17 2 14 5 -3 10 12 11 35 2 22 16 91 33 153 16 62 30 123 31 136
0 22 1 22 9 3 4 -11 6 -31 4 -45 -4 -20 -1 -18 13 10 21 42 31 50 60 50 40 0
96 -134 95 -227 -1 -54 46 -205 92 -293 19 -36 50 -106 70 -156 20 -50 60
-138 89 -195 l53 -104 167 -3 c154 -2 167 -1 167 15 0 10 -15 83 -34 163 -19
80 -37 165 -41 190 -8 53 -106 379 -140 465 -80 202 -117 335 -130 470 -4 38
-16 87 -26 107 -22 43 -41 122 -69 281 -23 129 -62 251 -113 354 -44 85 -75
117 -142 142 -36 14 -50 24 -49 38 3 48 38 202 52 230 14 28 14 43 3 122 -7
49 -20 120 -29 158 -9 37 -15 99 -14 138 l2 69 -56 73 c-69 90 -139 154 -199
182 -49 23 -70 27 -60 11z m179 -332 c-2 -9 0 -19 6 -23 5 -3 10 -11 10 -16 0
-6 -11 3 -25 19 -14 17 -25 39 -25 51 0 12 -4 21 -10 21 -5 0 -8 -6 -6 -12 15
-48 16 -68 2 -68 -18 0 -29 45 -16 70 14 27 12 40 -6 40 -8 0 -12 5 -8 11 10
17 85 -72 78 -93z m51 -69 c4 -12 2 -26 -4 -32 -8 -8 -11 -7 -11 5 0 11 -6 15
-20 11 -25 -7 -26 5 -2 23 24 18 30 17 37 -7z m-690 -249 c3 -5 1 -10 -4 -10
-6 0 -11 5 -11 10 0 6 2 10 4 10 3 0 8 -4 11 -10z m13 -268 c2 -7 -3 -12 -10
-12 -8 0 -15 7 -15 15 0 18 19 15 25 -3z m72 -92 c0 -5 -4 -10 -10 -10 -5 0
-10 5 -10 10 0 6 5 10 10 10 6 0 10 -4 10 -10z m40 -11 c0 -6 -4 -7 -10 -4 -5
3 -10 11 -10 16 0 6 5 7 10 4 6 -3 10 -11 10 -16z m780 -291 c0 -24 -4 -49 -9
-57 -10 -16 -31 -6 -31 15 0 8 -6 14 -12 14 -10 0 -10 2 0 9 8 4 13 10 11 12
-4 6 25 49 33 49 5 0 8 -19 8 -42z m-194 -24 l4 -39 -15 45 c-18 54 -18 57 -5
44 6 -6 13 -28 16 -50z m-1006 -185 c0 -5 -4 -9 -10 -9 -5 0 -10 7 -10 16 0 8
5 12 10 9 6 -3 10 -10 10 -16z m119 -24 c5 -5 4 -21 0 -35 -6 -22 -7 -23 -8
-4 -1 12 -3 34 -5 50 -2 16 -1 22 1 14 3 -8 8 -19 12 -25z m-52 -17 c-3 -8 -6
-5 -6 6 -1 11 2 17 5 13 3 -3 4 -12 1 -19z m8 -126 c-9 -9 -24 39 -18 55 6 14
9 11 14 -17 4 -19 6 -36 4 -38z m-18 -52 c14 0 29 -47 19 -57 -9 -9 -43 25
-77 75 -38 57 -37 60 9 18 20 -20 43 -36 49 -36z m108 -9 c4 -17 4 -31 2 -31
-5 0 -37 93 -37 107 0 15 28 -46 35 -76z m-108 37 c-3 -8 -6 -5 -6 6 -1 11 2
17 5 13 3 -3 4 -12 1 -19z m1483 -686 c0 -8 8 -27 17 -43 13 -23 15 -31 5 -41
-9 -9 -12 -7 -12 9 0 12 -4 25 -10 28 -5 3 -10 17 -10 30 0 13 -4 27 -10 30
-5 3 -10 14 -10 23 0 13 2 13 15 -4 8 -10 15 -25 15 -32z m102 -349 c9 -43 26
-118 37 -168 11 -50 21 -101 21 -115 0 -15 4 -30 9 -35 14 -15 25 -85 13 -85
-13 0 -22 25 -22 61 0 17 -4 28 -8 25 -9 -6 -27 54 -42 139 -6 33 -15 80 -21
105 -5 25 -10 53 -10 63 0 9 -6 29 -14 44 -15 28 -12 43 9 43 7 0 18 -31 28
-77z m-1632 37 c0 -5 -4 -10 -10 -10 -5 0 -10 5 -10 10 0 6 5 10 10 10 6 0 10
-4 10 -10z m-18 -340 c1 -33 0 -60 -4 -60 -5 0 -8 9 -8 19 0 11 -4 23 -10 26
-16 10 -12 75 4 75 10 0 15 -17 18 -60z m28 -79 c0 -6 -4 -13 -10 -16 -5 -3
-10 1 -10 9 0 9 5 16 10 16 6 0 10 -4 10 -9z"/>
<path d="M1722 3073 c2 -10 -3 -26 -12 -36 -21 -25 -19 -29 13 -33 15 -1 27 2
27 7 0 6 5 7 10 4 6 -4 25 -8 42 -10 29 -4 30 -3 12 10 -17 13 -17 16 -4 26
12 8 9 9 -12 5 -20 -5 -33 -1 -47 13 -11 11 -17 22 -13 25 3 3 0 6 -7 6 -7 0
-11 -8 -9 -17z"/>
<path d="M1833 3023 c9 -2 14 -9 11 -15 -4 -7 -2 -8 5 -4 15 10 4 26 -17 25
-15 -1 -15 -2 1 -6z"/>
<path d="M1705 2979 c-4 -6 -5 -12 -2 -15 2 -3 7 2 10 11 7 17 1 20 -8 4z"/>
<path d="M1940 2720 c0 -5 4 -10 9 -10 6 0 13 5 16 10 3 6 -1 10 -9 10 -9 0
-16 -4 -16 -10z"/>
<path d="M1721 2649 c11 -47 16 -56 25 -46 4 4 1 21 -6 39 -20 51 -29 55 -19
7z"/>
<path d="M1740 2576 c0 -23 22 -76 31 -76 10 0 12 50 3 74 -7 19 -34 21 -34 2z"/>
<path d="M1240 1339 c0 -5 5 -7 10 -4 6 3 10 8 10 11 0 2 -4 4 -10 4 -5 0 -10
-5 -10 -11z"/>
<path d="M1132 435 c0 -16 2 -22 5 -12 2 9 2 23 0 30 -3 6 -5 -1 -5 -18z"/>
<path d="M1148 386 c-25 -24 -34 -77 -15 -87 11 -7 14 -26 13 -79 -1 -38 2
-70 7 -70 5 0 7 -7 3 -15 -3 -8 0 -18 7 -22 13 -9 37 -70 37 -96 0 -13 9 -17
41 -17 35 0 40 2 33 17 -4 10 -8 42 -10 71 -1 30 -5 56 -8 59 -3 4 -6 14 -6
24 0 12 -6 16 -20 12 -13 -3 -20 0 -21 8 0 8 -2 33 -4 57 -2 26 0 40 7 36 5
-3 3 8 -6 24 -9 17 -16 37 -16 45 0 7 -6 21 -13 31 -12 17 -15 17 -29 2z"/>
<path d="M1254 264 c6 -19 15 -34 20 -34 4 0 5 7 2 16 -3 9 -6 22 -6 29 0 7
-6 15 -13 18 -11 4 -11 -2 -3 -29z"/>
<path d="M1298 260 c2 -16 6 -30 8 -30 2 0 4 14 4 30 0 17 -4 30 -8 30 -5 0
-7 -13 -4 -30z"/>
<path d="M1231 254 c0 -11 3 -14 6 -6 3 7 2 16 -1 19 -3 4 -6 -2 -5 -13z"/>
<path d="M1260 171 c0 -5 6 -14 14 -20 12 -10 13 -8 9 8 -5 21 -23 30 -23 12z"/>
<path d="M1317 173 c-3 -5 4 -22 17 -38 13 -16 25 -24 29 -18 4 6 -4 23 -17
38 -13 15 -26 23 -29 18z"/>
<path d="M1300 65 c0 -8 5 -15 10 -15 6 0 10 7 10 15 0 8 -4 15 -10 15 -5 0
-10 -7 -10 -15z"/>
<path d="M950 37 c0 -15 6 -30 13 -33 20 -7 175 0 157 7 -47 20 -117 36 -130
29 -9 -5 -19 -2 -27 8 -11 15 -12 14 -13 -11z"/>
<path d="M1340 10 c0 -5 5 -10 10 -10 6 0 10 5 10 10 0 6 -4 10 -10 10 -5 0
-10 -4 -10 -10z"/>
</g>
</svg>
